<svg width="135" height="40" viewBox="0 0 135 40" fill="none" xmlns="http://www.w3.org/2000/svg">
<g clip-path="url(#clip0)">
<path d="M130 -0.000488281H5C2.23858 -0.000488281 0 2.23809 0 4.99951V34.9995C0 37.7609 2.23858 39.9995 5 39.9995H130C132.761 39.9995 135 37.7609 135 34.9995V4.99951C135 2.23809 132.761 -0.000488281 130 -0.000488281Z" fill="black"/>
<path d="M130 0.799556C131.114 0.800842 132.181 1.24378 132.968 2.0312C133.756 2.81863 134.199 3.88622 134.2 4.99976V34.9998C134.199 36.1133 133.756 37.1809 132.968 37.9683C132.181 38.7557 131.114 39.1987 130 39.2H5C3.88645 39.1987 2.81888 38.7557 2.0315 37.9683C1.24412 37.1809 0.801231 36.1133 0.8 34.9998V4.99976C0.801212 3.8862 1.24409 2.8186 2.03148 2.03118C2.81886 1.24375 3.88644 0.800821 5 0.799556H130ZM130 -0.000244141H5C3.67511 0.00363396 2.40559 0.531663 1.46875 1.46851C0.531908 2.40535 0.0038781 3.67487 0 4.99976L0 34.9998C0.0038781 36.3246 0.531908 37.5942 1.46875 38.531C2.40559 39.4678 3.67511 39.9959 5 39.9998H130C131.325 39.9959 132.594 39.4678 133.531 38.531C134.468 37.5942 134.996 36.3246 135 34.9998V4.99976C134.996 3.67487 134.468 2.40535 133.531 1.46851C132.594 0.531663 131.325 0.00363396 130 -0.000244141Z" fill="#A6A6A6"/>
<path d="M47.4184 10.2429C47.4366 10.6098 47.3799 10.9766 47.2518 11.3209C47.1237 11.6653 46.9268 11.9799 46.6732 12.2458C46.389 12.5405 46.0457 12.772 45.6659 12.9249C45.2861 13.0779 44.8783 13.149 44.4691 13.1335C44.0573 13.1371 43.649 13.0585 43.268 12.9021C42.8871 12.7457 42.5412 12.5147 42.2508 12.2228C41.9604 11.9308 41.7313 11.5837 41.5769 11.202C41.4226 10.8202 41.3461 10.4114 41.352 9.99965C41.3462 9.58788 41.4227 9.1791 41.577 8.79732C41.7314 8.41554 41.9605 8.06846 42.2509 7.77647C42.5413 7.48447 42.8871 7.25346 43.268 7.097C43.649 6.94053 44.0573 6.86178 44.4691 6.86535C44.8925 6.86407 45.3116 6.94967 45.7006 7.11685C46.0619 7.26329 46.3834 7.493 46.6391 7.78725L46.1117 8.31505C45.9107 8.0785 45.6581 7.89129 45.3733 7.76786C45.0885 7.64442 44.7791 7.58807 44.4691 7.60315C44.157 7.60154 43.8478 7.66292 43.56 7.78363C43.2722 7.90435 43.0118 8.0819 42.7942 8.30566C42.5767 8.52942 42.4065 8.79478 42.2939 9.08586C42.1814 9.37694 42.1287 9.68774 42.1391 9.99965C42.1317 10.4668 42.2631 10.9257 42.5168 11.3181C42.7705 11.7105 43.135 12.0187 43.5641 12.2037C43.9932 12.3886 44.4676 12.442 44.927 12.357C45.3865 12.272 45.8104 12.0525 46.1449 11.7263C46.4528 11.3945 46.6313 10.9632 46.6478 10.5109H44.4691V9.79015H47.3764C47.4039 9.93949 47.4179 10.091 47.4184 10.2429Z" fill="white" stroke="white" stroke-width="0.2" stroke-miterlimit="10"/>
<path d="M52.0277 7.73681H49.2953V9.63911H51.7592V10.3599H49.2953V12.2622H52.0277V12.9995H48.5248V6.99951H52.0277V7.73681Z" fill="white" stroke="white" stroke-width="0.2" stroke-miterlimit="10"/>
<path d="M55.2787 12.9995H54.5072V7.73681H52.8314V6.99951H56.9545V7.73681H55.2787V12.9995Z" fill="white" stroke="white" stroke-width="0.2" stroke-miterlimit="10"/>
<path d="M59.9379 12.9995V6.99951H60.7084V12.9995H59.9379Z" fill="white" stroke="white" stroke-width="0.2" stroke-miterlimit="10"/>
<path d="M64.1284 12.9995H63.3569V7.73681H61.6812V6.99951H65.8042V7.73681H64.1284V12.9995Z" fill="white" stroke="white" stroke-width="0.2" stroke-miterlimit="10"/>
<path d="M73.6093 12.2241C73.0253 12.8064 72.2343 13.1333 71.4096 13.1333C70.5849 13.1333 69.7939 12.8064 69.2099 12.2241C68.921 11.9315 68.6939 11.5838 68.542 11.2016C68.3902 10.8194 68.3168 10.4106 68.3261 9.99953C68.3168 9.58842 68.3902 9.17963 68.542 8.79746C68.6939 8.4153 68.921 8.06756 69.2099 7.77493C69.4986 7.4862 69.8413 7.25723 70.2186 7.10113C70.5958 6.94504 71.0002 6.86487 71.4085 6.86524C71.8167 6.8656 72.2209 6.94648 72.5979 7.10325C72.9749 7.26001 73.3173 7.48959 73.6054 7.77883C73.8945 8.07069 74.1221 8.41765 74.2746 8.79912C74.4271 9.18059 74.5014 9.5888 74.4931 9.99953C74.5022 10.4106 74.4286 10.8193 74.2768 11.2015C74.125 11.5836 73.898 11.9314 73.6093 12.2241ZM69.7792 11.7217C70.2117 12.1535 70.7979 12.396 71.4091 12.396C72.0203 12.396 72.6065 12.1535 73.039 11.7217C73.2608 11.4947 73.4343 11.225 73.5489 10.929C73.6635 10.633 73.717 10.3168 73.706 9.99953C73.717 9.68229 73.6635 9.36612 73.5489 9.07011C73.4343 8.77411 73.2608 8.50442 73.039 8.27733C72.6065 7.84554 72.0203 7.60302 71.4091 7.60302C70.7979 7.60302 70.2117 7.84554 69.7792 8.27733C69.5577 8.5046 69.3845 8.77434 69.2701 9.07032C69.1556 9.3663 69.1022 9.68238 69.1132 9.99953C69.1022 10.3167 69.1556 10.6328 69.2701 10.9287C69.3845 11.2247 69.5577 11.4945 69.7792 11.7217Z" fill="white" stroke="white" stroke-width="0.2" stroke-miterlimit="10"/>
<path d="M75.5751 12.9995V6.99951H76.5136L79.4296 11.667H79.4628L79.4296 10.5107V6.99951H80.2011V12.9995H79.3964L76.3456 8.10591H76.3124L76.3456 9.26221V12.9995H75.5751Z" fill="white" stroke="white" stroke-width="0.2" stroke-miterlimit="10"/>
<path d="M68.1358 21.7512C67.2953 21.7544 66.4746 22.0066 65.7773 22.4758C65.08 22.9451 64.5373 23.6105 64.2179 24.3879C63.8984 25.1654 63.8165 26.02 63.9825 26.844C64.1484 27.668 64.5547 28.4243 65.1502 29.0175C65.7457 29.6107 66.5035 30.0142 67.3281 30.177C68.1527 30.3398 69.0071 30.2546 69.7833 29.9322C70.5595 29.6098 71.2228 29.0647 71.6895 28.3656C72.1561 27.6665 72.4051 26.8448 72.4051 26.0043C72.4134 25.4421 72.3085 24.884 72.0966 24.3632C71.8848 23.8424 71.5704 23.3696 71.1721 22.9727C70.7737 22.5759 70.2997 22.2633 69.7781 22.0535C69.2564 21.8436 68.698 21.7408 68.1358 21.7512ZM68.1358 28.582C67.6182 28.6189 67.1014 28.4991 66.6528 28.2382C66.2043 27.9774 65.8446 27.5875 65.6207 27.1193C65.3968 26.6511 65.3191 26.1264 65.3976 25.6135C65.4761 25.1005 65.7072 24.623 66.0608 24.2433C66.4145 23.8635 66.8743 23.599 67.3804 23.4842C67.8865 23.3694 68.4154 23.4096 68.8983 23.5997C69.3812 23.7897 69.7957 24.1207 70.0878 24.5496C70.3799 24.9785 70.5362 25.4854 70.5362 26.0043C70.5519 26.3322 70.5019 26.6598 70.389 26.968C70.2762 27.2762 70.1028 27.5588 69.8792 27.799C69.6555 28.0392 69.386 28.2322 69.0866 28.3667C68.7872 28.5011 68.4639 28.5744 68.1358 28.582ZM58.8224 21.7512C57.9819 21.7544 57.1612 22.0065 56.4638 22.4758C55.7665 22.9451 55.2239 23.6104 54.9044 24.3879C54.585 25.1653 54.503 26.02 54.6689 26.844C54.8349 27.6679 55.2412 28.4243 55.8367 29.0175C56.4321 29.6107 57.19 30.0142 58.0146 30.177C58.8392 30.3398 59.6936 30.2546 60.4698 29.9322C61.246 29.6099 61.9093 29.0647 62.376 28.3656C62.8426 27.6665 63.0916 26.8448 63.0916 26.0043C63.0999 25.4421 62.995 24.8841 62.7831 24.3633C62.5713 23.8425 62.2569 23.3696 61.8586 22.9728C61.4603 22.576 60.9862 22.2633 60.4646 22.0535C59.943 21.8436 59.3845 21.7408 58.8224 21.7512ZM58.8224 28.582C58.3048 28.6189 57.788 28.4991 57.3394 28.2382C56.8909 27.9774 56.5312 27.5875 56.3073 27.1193C56.0834 26.6511 56.0057 26.1264 56.0842 25.6135C56.1627 25.1005 56.3938 24.623 56.7474 24.2433C57.1011 23.8635 57.5609 23.599 58.067 23.4842C58.573 23.3694 59.102 23.4096 59.5849 23.5997C60.0678 23.7897 60.4823 24.1207 60.7744 24.5496C61.0665 24.9785 61.2228 25.4854 61.2228 26.0043C61.2385 26.3322 61.1885 26.6598 61.0757 26.968C60.9628 27.2763 60.7895 27.5588 60.5658 27.799C60.3421 28.0392 60.0726 28.2322 59.7732 28.3667C59.4738 28.5012 59.1505 28.5744 58.8224 28.582ZM47.7436 23.0562V24.8605H52.0613C51.999 25.7068 51.6527 26.5073 51.0785 27.1321C50.6458 27.5731 50.1255 27.9186 49.5511 28.1461C48.9767 28.3736 48.3609 28.4782 47.7436 28.4531C46.4816 28.436 45.277 27.9227 44.3906 27.0242C43.5042 26.1257 43.0073 24.9144 43.0073 23.6522C43.0073 22.3901 43.5042 21.1787 44.3906 20.2802C45.277 19.3817 46.4816 18.8684 47.7436 18.8513C48.9558 18.8355 50.1253 19.2986 50.998 20.1401L52.2707 18.8674C51.6753 18.2779 50.9681 17.8133 50.1907 17.5006C49.4134 17.188 48.5814 17.0338 47.7436 17.0469C46.8681 17.0342 45.9988 17.1956 45.1862 17.5218C44.3737 17.8481 43.6341 18.3326 43.0104 18.9472C42.3868 19.5618 41.8916 20.2943 41.5535 21.102C41.2155 21.9097 41.0414 22.7766 41.0414 23.6522C41.0414 24.5278 41.2155 25.3947 41.5535 26.2024C41.8916 27.0101 42.3868 27.7426 43.0104 28.3572C43.6341 28.9719 44.3737 29.4564 45.1862 29.7826C45.9988 30.1088 46.8681 30.2703 47.7436 30.2575C48.5991 30.293 49.4523 30.1462 50.2467 29.8267C51.0411 29.5073 51.7584 29.0226 52.3512 28.4048C53.4036 27.2561 53.9646 25.741 53.914 24.1839C53.9181 23.8058 53.8857 23.4281 53.8172 23.0562H47.7436ZM93.0519 24.4577C92.7963 23.6873 92.3097 23.0143 91.6583 22.5301C91.0069 22.0459 90.2223 21.774 89.4109 21.7512C88.8644 21.7546 88.3243 21.8688 87.8232 22.0868C87.3222 22.3049 86.8705 22.6222 86.4955 23.0198C86.1206 23.4173 85.8301 23.8868 85.6417 24.3998C85.4534 24.9127 85.371 25.4586 85.3995 26.0043C85.3872 26.5635 85.4877 27.1194 85.6951 27.6389C85.9024 28.1583 86.2123 28.6307 86.6063 29.0277C87.0003 29.4247 87.4703 29.7382 87.9881 29.9495C88.506 30.1608 89.0611 30.2656 89.6204 30.2575C90.3211 30.2614 91.0117 30.0912 91.6303 29.7622C92.2489 29.4332 92.7761 28.9557 93.1646 28.3726L91.7147 27.406C91.4975 27.7667 91.1902 28.0648 90.8231 28.271C90.4559 28.4772 90.0415 28.5843 89.6204 28.582C89.1871 28.5986 88.7588 28.4846 88.3911 28.2548C88.0234 28.025 87.7332 27.69 87.5582 27.2932L93.2453 24.9411L93.0519 24.4577ZM87.2522 25.8755C87.2322 25.566 87.2741 25.2555 87.3755 24.9624C87.4769 24.6692 87.6357 24.3992 87.8428 24.1682C88.0498 23.9371 88.3008 23.7497 88.5811 23.6169C88.8614 23.484 89.1654 23.4084 89.4753 23.3945C89.798 23.3733 90.1198 23.4475 90.4006 23.608C90.6813 23.7684 90.9087 24.0079 91.0542 24.2967L87.2522 25.8755ZM82.6284 29.9997H84.4972V17.4981H82.6284V29.9997ZM79.5674 22.7017H79.503C79.2189 22.393 78.8721 22.1486 78.486 21.9846C78.0998 21.8207 77.683 21.7411 77.2636 21.7512C76.1669 21.7979 75.1306 22.2664 74.3711 23.0589C73.6116 23.8514 73.1876 24.9067 73.1876 26.0044C73.1876 27.1021 73.6116 28.1573 74.3711 28.9498C75.1306 29.7423 76.1669 30.2108 77.2636 30.2575C77.6847 30.2687 78.1031 30.1881 78.4899 30.0211C78.8766 29.8542 79.2223 29.605 79.503 29.2909H79.5674V29.9031C79.5674 31.5303 78.6975 32.4002 77.2958 32.4002C76.8287 32.389 76.3754 32.239 75.9939 31.9693C75.6123 31.6996 75.3196 31.3224 75.1532 30.8858L73.526 31.5625C73.8327 32.3092 74.3553 32.9473 75.027 33.395C75.6986 33.8428 76.4886 34.0798 77.2958 34.0757C79.4869 34.0757 81.3396 32.7869 81.3396 29.6453V22.0089H79.5674V22.7017ZM77.4248 28.582C76.7789 28.5272 76.177 28.232 75.7384 27.7546C75.2999 27.2772 75.0565 26.6526 75.0565 26.0044C75.0565 25.3561 75.2999 24.7315 75.7384 24.2541C76.177 23.7768 76.7789 23.4815 77.4248 23.4267C77.7462 23.4424 78.0611 23.5226 78.3508 23.6626C78.6404 23.8026 78.899 23.9995 79.111 24.2415C79.3229 24.4836 79.484 24.7658 79.5846 25.0714C79.6851 25.3771 79.7231 25.6998 79.6963 26.0204C79.7214 26.339 79.682 26.6595 79.5805 26.9625C79.4789 27.2656 79.3173 27.545 79.1052 27.7842C78.8931 28.0233 78.635 28.2172 78.3463 28.3543C78.0576 28.4914 77.7442 28.5689 77.4248 28.582ZM101.806 17.4983H97.3346V29.9997H99.2003V25.2633H101.806C102.334 25.2922 102.862 25.2133 103.358 25.0312C103.854 24.8492 104.308 24.5679 104.692 24.2045C105.076 23.8412 105.381 23.4034 105.59 22.9179C105.799 22.4324 105.907 21.9094 105.907 21.3808C105.907 20.8523 105.799 20.3293 105.59 19.8438C105.381 19.3583 105.076 18.9205 104.692 18.5571C104.308 18.1937 103.854 17.9124 103.358 17.7304C102.862 17.5484 102.334 17.4694 101.806 17.4983ZM101.854 23.5235H99.2003V19.2382H101.854C102.139 19.2323 102.423 19.2834 102.688 19.3884C102.953 19.4934 103.194 19.6503 103.398 19.8498C103.602 20.0494 103.764 20.2876 103.874 20.5505C103.985 20.8134 104.042 21.0957 104.042 21.3809C104.042 21.666 103.985 21.9483 103.874 22.2112C103.764 22.4741 103.602 22.7123 103.398 22.9119C103.194 23.1114 102.953 23.2683 102.688 23.3733C102.423 23.4784 102.139 23.5294 101.854 23.5235ZM113.386 21.7282C112.705 21.6885 112.027 21.8484 111.435 22.1884C110.844 22.5284 110.365 23.0336 110.056 23.6421L111.713 24.3337C111.877 24.0317 112.126 23.7841 112.429 23.6213C112.732 23.4584 113.075 23.3874 113.418 23.4169C113.891 23.3707 114.363 23.5141 114.731 23.8155C115.099 24.117 115.332 24.552 115.38 25.0252V25.1539C114.781 24.8356 114.112 24.6699 113.434 24.6714C111.649 24.6714 109.831 25.6525 109.831 27.486C109.849 27.8724 109.943 28.2514 110.11 28.6005C110.277 28.9496 110.512 29.2616 110.801 29.5181C111.091 29.7746 111.429 29.9704 111.795 30.0937C112.162 30.2171 112.55 30.2655 112.935 30.2362C113.405 30.2639 113.874 30.1651 114.292 29.9501C114.711 29.7351 115.064 29.4118 115.316 29.0139H115.38V29.9789H117.181V25.1861C117.181 22.9666 115.525 21.7282 113.386 21.7282ZM113.161 28.5796C112.549 28.5796 111.697 28.2741 111.697 27.5181C111.697 26.5532 112.758 26.1832 113.675 26.1832C114.271 26.1674 114.859 26.3118 115.38 26.6014C115.311 27.1437 115.049 27.6427 114.641 28.0064C114.233 28.3701 113.707 28.5737 113.161 28.5796ZM123.743 22.0016L121.604 27.4216H121.54L119.32 22.0016H117.31L120.639 29.5768L118.741 33.7906H120.687L125.818 22.0016H123.743ZM106.936 29.9997H108.802V17.4983H106.936V29.9997Z" fill="white"/>
<path d="M10.4353 7.53769C10.1074 7.92976 9.94182 8.43239 9.97251 8.94259V31.0587C9.94173 31.5689 10.1073 32.0716 10.4353 32.4636L10.5093 32.5357L22.8983 20.1468V19.8545L10.5093 7.46509L10.4353 7.53769Z" fill="url(#paint0_linear)"/>
<path d="M27.0277 24.2782L22.8983 20.1468V19.8545L27.0287 15.7241L27.1218 15.7772L32.0146 18.5573C33.4122 19.3513 33.4122 20.6505 32.0146 21.445L27.1218 24.2251L27.0277 24.2782Z" fill="url(#paint1_linear)"/>
<path d="M27.1218 24.2246L22.8983 20.0007L10.4353 32.4636C10.7201 32.7148 11.0837 32.8584 11.4633 32.8696C11.8428 32.8808 12.2143 32.7589 12.5134 32.525L27.1218 24.2246Z" fill="url(#paint2_linear)"/>
<path d="M27.1218 15.7766L12.5134 7.47617C12.2143 7.24226 11.8428 7.12036 11.4633 7.13157C11.0837 7.14278 10.7201 7.28641 10.4353 7.53757L22.8983 20.0006L27.1218 15.7766Z" fill="url(#paint3_linear)"/>
<path opacity="0.2" d="M27.0287 24.1316L12.5134 32.3789C12.2258 32.5978 11.8748 32.7173 11.5134 32.7192C11.152 32.7211 10.7997 32.6054 10.5098 32.3896L10.4353 32.4641L10.5093 32.5362L10.5098 32.5357C10.7997 32.7517 11.1519 32.8674 11.5134 32.8655C11.8749 32.8636 12.2259 32.744 12.5134 32.525L27.1218 24.2246L27.0287 24.1316Z" fill="black"/>
<path opacity="0.12" d="M10.4353 32.318C10.1074 31.9259 9.94183 31.4233 9.97248 30.9131V31.0592C9.94181 31.5694 10.1074 32.072 10.4353 32.4641L10.5098 32.3896L10.4353 32.318Z" fill="black"/>
<path opacity="0.12" d="M32.0146 21.2983L27.0287 24.1315L27.1218 24.2245L32.0146 21.4444C32.3024 21.3195 32.5515 21.1197 32.7358 20.8658C32.9202 20.612 33.0331 20.3133 33.0629 20.001C33.001 20.2838 32.8741 20.5484 32.6921 20.7735C32.5101 20.9987 32.2781 21.1784 32.0146 21.2983Z" fill="black"/>
<path opacity="0.25" d="M12.5134 7.62286L32.0146 18.7029C32.2782 18.8227 32.5103 19.0024 32.6923 19.2277C32.8743 19.453 33.0012 19.7177 33.0629 20.0007C33.0333 19.6882 32.9205 19.3894 32.7361 19.1354C32.5517 18.8814 32.3025 18.6816 32.0146 18.5568L12.5134 7.47675C11.1158 6.68265 9.97247 7.34225 9.97247 8.94305V9.08915C9.97247 7.48845 11.1158 6.82885 12.5134 7.62286Z" fill="white"/>
</g>
<defs>
<linearGradient id="paint0_linear" x1="21.7996" y1="8.7094" x2="5.01724" y2="25.4918" gradientUnits="userSpaceOnUse">
<stop stop-color="#00A0FF"/>
<stop offset="0.00657" stop-color="#00A1FF"/>
<stop offset="0.2601" stop-color="#00BEFF"/>
<stop offset="0.5122" stop-color="#00D2FF"/>
<stop offset="0.7604" stop-color="#00DFFF"/>
<stop offset="1" stop-color="#00E3FF"/>
</linearGradient>
<linearGradient id="paint1_linear" x1="33.8343" y1="20.0012" x2="9.6374" y2="20.0012" gradientUnits="userSpaceOnUse">
<stop stop-color="#FFE000"/>
<stop offset="0.4087" stop-color="#FFBD00"/>
<stop offset="0.7754" stop-color="#FFA500"/>
<stop offset="1" stop-color="#FF9C00"/>
</linearGradient>
<linearGradient id="paint2_linear" x1="24.8269" y1="22.2958" x2="2.06857" y2="45.0541" gradientUnits="userSpaceOnUse">
<stop stop-color="#FF3A44"/>
<stop offset="1" stop-color="#C31162"/>
</linearGradient>
<linearGradient id="paint3_linear" x1="7.29723" y1="0.175749" x2="17.4598" y2="10.3383" gradientUnits="userSpaceOnUse">
<stop stop-color="#32A071"/>
<stop offset="0.0685" stop-color="#2DA771"/>
<stop offset="0.4762" stop-color="#15CF74"/>
<stop offset="0.8009" stop-color="#06E775"/>
<stop offset="1" stop-color="#00F076"/>
</linearGradient>
<clipPath id="clip0">
<rect width="135" height="40.0002" fill="white" transform="translate(0 -0.000488281)"/>
</clipPath>
</defs>
</svg>
